<svg xmlns="http://www.w3.org/2000/svg" width="1024" height="1024" viewBox="0 0 1024 1024" version="1.1"><path d="M 451 19.469 C 421.075 21.956, 396.676 26.989, 371.500 35.871 C 356.942 41.007, 356.850 41.040, 354.250 42.091 C 353.012 42.591, 350.988 43.397, 349.750 43.882 C 343.323 46.399, 318.945 58.282, 313.500 61.551 C 311.300 62.872, 308.600 64.420, 307.500 64.991 C 306.400 65.562, 304.150 66.918, 302.500 68.004 C 300.850 69.090, 298.825 70.293, 298 70.677 C 296.443 71.403, 293.649 73.324, 278.487 84.096 C 239.441 111.838, 203.859 149.623, 179.702 189 C 171.256 202.766, 155 235.118, 155 238.160 C 155 238.952, 154.597 240.028, 154.105 240.550 C 151.589 243.222, 143.219 271.459, 139.548 289.657 C 134.959 312.409, 133.703 325.866, 133.683 352.500 C 133.664 377.885, 134.574 390.759, 138.100 415 C 139.676 425.839, 139.825 428.946, 138.855 430.765 C 137.833 432.680, 137.972 433.470, 139.752 435.879 C 142.304 439.330, 143.802 446, 142.026 446 C 141.368 446, 137.792 443.300, 134.079 440 C 130.366 436.700, 126.859 434, 126.286 434 C 125.714 434, 124.712 433.358, 124.061 432.574 C 121.653 429.672, 110.145 427, 100.082 427.006 C 89.250 427.012, 85.233 427.896, 76.090 432.286 C 64.206 437.992, 55.450 449.601, 51.416 465 C 48 478.044, 45.748 498.381, 45.659 517 C 45.531 543.590, 47.799 554.098, 56.575 567.581 C 58.694 570.837, 60.930 574.400, 61.544 575.500 C 62.548 577.298, 67.706 586.165, 69.979 590 C 73.019 595.129, 79.899 613.947, 84.056 628.500 C 88.503 644.072, 95.932 664.138, 98.107 666.450 C 98.598 666.972, 99 668.068, 99 668.884 C 99 672.840, 119.371 712.545, 125.826 721.172 C 138.208 737.719, 140.631 740.681, 147.436 747.594 C 152.489 752.728, 155.639 755.087, 158.500 755.880 C 164.627 757.579, 171.083 757.240, 175.261 755 C 177.314 753.900, 179.417 753, 179.935 753 C 180.453 753, 181.170 755.138, 181.529 757.750 C 183.490 772.060, 191.217 799.698, 195.733 808.558 C 196.277 809.626, 198.145 813.566, 199.883 817.313 C 215.191 850.314, 266.487 907.443, 311 941.067 C 345.096 966.822, 400.625 993.982, 439 1003.675 C 487.695 1015.973, 541.354 1016.094, 590.757 1004.016 C 610.007 999.309, 638.331 989.509, 650 983.517 C 652.475 982.246, 656.075 980.467, 658 979.562 C 661.559 977.890, 662.461 977.381, 669.514 973.056 C 688.263 961.562, 713.587 936.821, 731.146 912.844 C 736.523 905.502, 745 892.447, 745 891.508 C 745 891.155, 746.125 889.392, 747.500 887.589 C 748.875 885.786, 750 883.986, 750 883.589 C 750 883.192, 751.077 881.434, 752.393 879.683 C 753.709 877.932, 755.636 874.925, 756.676 873 C 757.715 871.075, 759.789 867.596, 761.283 865.270 C 762.777 862.943, 764 860.776, 764 860.453 C 764 860.131, 765.014 858.434, 766.253 856.683 C 769.406 852.226, 770.809 849.959, 772.552 846.500 C 773.383 844.850, 774.837 842.302, 775.782 840.838 C 781.998 831.208, 788.019 820.561, 798.557 800.566 C 806.517 785.460, 811.533 770.096, 814.476 751.801 L 815.071 748.102 823.379 748.689 C 831.031 749.229, 839.399 748.135, 844 745.993 C 851.468 742.516, 853.779 740.928, 857.836 736.485 C 860.401 733.676, 863.486 729.380, 864.690 726.939 C 868.362 719.497, 884.640 669.267, 887.517 656.500 C 898.544 607.573, 901.435 597.993, 916.480 560.523 C 929.122 529.038, 930.473 523.586, 930.488 504 C 930.501 487.126, 929.122 479.672, 923.271 465 C 922.722 463.625, 921.340 460.700, 920.199 458.500 C 919.058 456.300, 917.336 452.966, 916.372 451.091 C 915.409 449.216, 911.444 444.473, 907.561 440.552 C 898.044 430.942, 889.895 426.959, 878.261 426.233 C 866.793 425.518, 859.704 427.568, 848.818 434.749 C 846.401 436.343, 844.429 436.954, 843.078 436.525 C 841.861 436.138, 840.109 436.510, 838.788 437.436 C 837.560 438.296, 836.093 438.999, 835.527 438.999 C 834.842 438.998, 834.483 425.283, 834.449 397.749 C 834.396 354.576, 833.611 342.742, 828.927 314.500 C 826.915 302.371, 822.117 281.272, 819.489 273 C 818.703 270.525, 817.090 265.350, 815.906 261.500 C 814.722 257.650, 813.358 254.073, 812.876 253.550 C 812.394 253.028, 812 251.932, 812 251.116 C 812 249.376, 810.056 245.094, 801.360 227.684 C 794.311 213.569, 794.724 214.281, 784.131 198 C 764.230 167.414, 732.177 134.113, 694.500 104.878 C 678.441 92.417, 661.353 79.781, 656.126 76.500 C 655.250 75.950, 652.501 74.154, 650.016 72.509 C 647.532 70.864, 644.341 68.839, 642.924 68.009 C 633.654 62.579, 625.160 57.545, 623.135 56.280 C 618.788 53.566, 599.594 44.317, 591.500 41.036 C 587.100 39.253, 582.150 37.186, 580.500 36.444 C 571.273 32.291, 547.213 25.859, 530.089 22.968 C 504.143 18.587, 476.393 17.359, 451 19.469 M 452 27.637 C 440.318 28.707, 423.255 31.380, 410.851 34.083 C 396.882 37.127, 368.856 45.593, 361.261 49.063 C 358.929 50.128, 356.561 51, 355.997 51 C 355.434 51, 354.191 51.409, 353.236 51.908 C 352.281 52.408, 349.025 53.954, 346 55.345 C 335.948 59.968, 323.574 66.143, 317.500 69.569 C 314.200 71.430, 310.600 73.412, 309.500 73.974 C 307.006 75.248, 305.838 75.997, 294.086 83.875 C 271.809 98.808, 252.477 114.716, 235.393 132.173 C 208.803 159.343, 191.297 183.900, 174.566 217.500 C 153.295 260.217, 143.463 298.905, 142.288 344.514 C 141.975 356.627, 142.232 371.877, 142.894 380.514 C 144.271 398.502, 148.793 430.621, 150.384 433.719 C 151.010 434.939, 160.205 445.161, 170.816 456.434 C 186.210 472.788, 190.755 477.048, 193.305 477.513 C 195.062 477.833, 202.322 477.962, 209.438 477.798 L 222.376 477.500 223.184 474 C 225.716 463.036, 227.072 460.206, 232.002 455.595 C 238.085 449.905, 243.109 447.666, 258 444.011 C 287.041 436.881, 309.364 434.611, 351 434.552 C 377.536 434.514, 385.702 434.839, 395.500 436.325 C 432.450 441.927, 443.013 445.527, 451.807 455.518 C 455.864 460.127, 460 467.701, 460 470.520 C 460 473.091, 462.557 473.252, 467.515 470.993 C 475.962 467.145, 486.900 465.726, 504 466.260 C 520.161 466.764, 522.361 467.277, 535.237 473.540 C 537.293 474.540, 539.202 475.131, 539.480 474.853 C 539.758 474.575, 540.434 471.986, 540.981 469.100 C 544.748 449.237, 559.142 440.584, 602.500 432.119 C 621.716 428.367, 633.539 427.499, 665 427.531 C 688.525 427.554, 698.358 427.963, 708 429.316 C 721.883 431.264, 754.214 438.212, 760.630 440.626 C 766.349 442.778, 772.617 449.508, 775.490 456.582 L 777.894 462.500 789.975 462.781 C 796.620 462.936, 803.808 462.590, 805.950 462.014 C 808.129 461.427, 813.330 458.150, 817.760 454.573 L 825.677 448.181 826.336 429.340 C 828.907 355.770, 821.431 299.125, 803.081 253.149 C 799.205 243.438, 788.414 221.076, 784.913 215.500 C 783.877 213.850, 782.568 211.600, 782.004 210.500 C 771.615 190.237, 735.751 150.053, 706 125.339 C 635.778 67.006, 580.729 39.125, 516.500 29.362 C 506.836 27.893, 462.229 26.700, 452 27.637 M 277.421 395.410 C 274.077 396.177, 269.352 397.495, 266.921 398.338 C 248.884 404.595, 244.768 406.207, 241.687 408.220 C 239.767 409.474, 235.902 411.737, 233.098 413.250 C 228.785 415.576, 228 416.443, 228 418.877 C 228 422.936, 230.094 424.329, 234.960 423.507 C 237.176 423.132, 239.243 422.415, 239.554 421.913 C 239.864 421.411, 240.794 421, 241.621 421 C 242.448 421, 245.458 419.930, 248.312 418.623 C 258.881 413.781, 268.986 409.980, 275.155 408.525 C 288.048 405.486, 311.996 406.911, 366.500 413.963 C 408.891 419.447, 411.626 419.649, 414.038 417.466 C 415.117 416.489, 416 414.930, 416 414 C 416 410.497, 412.704 409.326, 398 407.606 C 390.025 406.673, 381.025 405.485, 378 404.967 C 326.405 396.119, 289.580 392.620, 277.421 395.410 M 651 397.643 C 634.693 398.847, 606.459 402.417, 592.823 404.999 C 564.815 410.302, 562 411.313, 562 416.069 C 562 420.863, 565.777 420.938, 592.500 416.677 C 622.445 411.901, 644.740 409.617, 662 409.557 L 678.500 409.500 697.500 416.110 C 707.950 419.746, 720.325 424.153, 725 425.904 C 741.392 432.042, 741.833 432.159, 744.055 430.971 C 745.495 430.200, 746.026 429.075, 745.810 427.254 C 745.545 425.020, 743.841 423.806, 734 418.841 C 727.675 415.649, 721.989 413.029, 721.364 413.019 C 720.740 413.008, 718.940 412.328, 717.364 411.506 C 715.789 410.685, 713.803 410.010, 712.950 410.006 C 712.097 410.003, 710.972 409.600, 710.450 409.111 C 709.928 408.622, 706.800 407.454, 703.500 406.516 C 700.200 405.578, 697.036 404.430, 696.469 403.965 C 695.902 403.500, 691.136 401.974, 685.877 400.575 C 676.189 397.997, 662.167 396.819, 651 397.643 M 89 436.888 C 80.886 439.514, 73.120 443.746, 69.832 447.335 C 63.365 454.391, 59.165 467.211, 55.865 489.973 C 54.122 501.989, 53.852 507.508, 54.273 522.473 C 54.940 546.207, 57.111 553.652, 67.747 568.683 C 68.986 570.434, 70 572.131, 70 572.453 C 70 572.776, 71.202 574.943, 72.671 577.270 C 78.258 586.116, 84.740 600.080, 87.401 609 C 88.304 612.025, 89.712 616.750, 90.532 619.500 C 94.009 631.172, 99.273 646.797, 101.022 650.640 C 102.059 652.916, 103.214 656.066, 103.589 657.640 C 103.965 659.213, 104.838 661.625, 105.530 663 C 106.222 664.375, 107.801 667.750, 109.040 670.500 C 123.883 703.457, 128.179 711.037, 141.329 727.479 C 152.592 741.560, 154.861 743.852, 160.278 746.620 C 164.383 748.718, 165.585 748.919, 168.813 748.050 C 170.879 747.494, 174.095 745.466, 175.958 743.543 L 179.346 740.048 178.098 721.274 C 175.113 676.357, 171.927 644.186, 164.948 588.500 C 161.577 561.603, 146.351 462.379, 145.345 460.750 C 145.090 460.337, 144.392 460, 143.793 460 C 143.194 460, 138.833 456.288, 134.102 451.750 C 124.687 442.720, 118.464 438.877, 109.465 436.533 C 101.894 434.561, 95.866 434.665, 89 436.888 M 643.500 435.693 C 617.622 437.053, 587.566 443.055, 565.894 451.190 C 552.987 456.034, 547.800 467.733, 547.797 492 C 547.796 505.165, 551.045 524.769, 554.550 532.741 C 566.078 558.958, 573.439 565.371, 599.500 571.899 C 629.823 579.495, 668.521 579.891, 695.500 572.881 C 697.700 572.309, 701.300 571.370, 703.500 570.794 C 721.191 566.161, 738.265 558.985, 749.745 551.358 C 758.427 545.589, 761.435 542.361, 765.566 534.378 C 774.029 518.027, 773.811 464.201, 765.244 454.713 C 761.870 450.976, 751.661 446.818, 738.612 443.865 C 706.320 436.559, 676.230 433.974, 643.500 435.693 M 862.892 437.294 C 855.023 440.616, 851.319 443.145, 845 449.509 C 840.363 454.180, 839.086 454.957, 836.859 454.469 C 834.218 453.889, 834.218 453.889, 833.596 461.694 C 833.254 465.988, 832.087 484.125, 831.003 502 C 829.918 519.875, 827.915 552.500, 826.552 574.500 C 817.055 727.684, 816.605 736.989, 818.621 738.485 C 824.918 743.161, 844.392 738.854, 851.257 731.268 C 853.720 728.547, 858.291 718.775, 860.973 710.500 C 862.220 706.650, 863.850 702.150, 864.594 700.500 C 866.315 696.682, 873.744 674.232, 875.679 667 C 878.299 657.209, 881.773 642.603, 882.456 638.500 C 884.523 626.096, 894.008 591.021, 895.977 588.500 C 896.407 587.950, 897.482 584.974, 898.367 581.888 C 899.252 578.801, 900.654 574.976, 901.482 573.388 C 902.310 571.799, 902.990 569.974, 902.994 569.331 C 902.997 568.688, 903.633 566.888, 904.407 565.331 C 905.182 563.774, 906.370 561.150, 907.048 559.500 C 907.726 557.850, 908.845 555.150, 909.535 553.500 C 910.225 551.850, 911.339 549.150, 912.011 547.500 C 912.683 545.850, 913.631 543.719, 914.117 542.764 C 914.603 541.809, 915 540.527, 915 539.915 C 915 539.303, 915.626 537.384, 916.390 535.651 C 918.506 530.856, 920.778 521.400, 921.976 512.402 C 924.442 493.875, 918.102 469.680, 906.227 452.297 C 901.544 445.443, 898.208 442.594, 890 438.441 C 882.093 434.441, 870.785 433.962, 862.892 437.294 M 324 443.095 C 291.667 445.370, 254.910 451.971, 244.114 457.442 C 241.410 458.813, 238.244 461.146, 237.079 462.627 C 227.258 475.111, 227.080 531.965, 236.799 551.980 C 239.949 558.468, 245.844 564.685, 249.725 565.612 C 251.251 565.977, 252.985 566.655, 253.579 567.118 C 256.992 569.784, 275.913 575.281, 294 578.863 C 322.408 584.487, 365.040 582.169, 391.393 573.566 C 399.698 570.855, 414.311 563.395, 421.189 558.355 C 427.140 553.995, 439.217 541.106, 441.394 536.792 C 442.308 534.981, 443.438 532.825, 443.906 532 C 445.232 529.664, 448.242 522.862, 449.661 519 C 452.154 512.211, 454.270 494.944, 453.578 487.035 C 451.505 463.346, 445.739 456.303, 423.735 450.586 C 396.554 443.524, 358.511 440.666, 324 443.095 M 154 455.987 C 154 457.080, 155.566 467.768, 157.480 479.737 C 172.415 573.124, 179.175 625.813, 183.497 682.500 C 185.559 709.555, 186.006 713, 187.455 713 C 188.541 713, 189.493 710.675, 191.931 702.071 C 193.357 697.038, 199.063 696.790, 199.803 701.729 C 200.524 706.535, 193.440 726.516, 189.399 731.079 C 188.629 731.947, 188 734.723, 188 737.247 C 188 746.752, 190.718 747.652, 194.044 739.250 C 195.296 736.087, 196.993 732.712, 197.815 731.750 C 201.018 728, 205.767 730.807, 204.534 735.720 C 203.383 740.308, 195.950 757.149, 193.783 760.080 C 191.874 762.662, 191.830 763.235, 193.058 769.415 C 193.876 773.531, 194.861 776, 195.683 776 C 196.409 776, 197 774.915, 197 773.583 C 197 770.531, 200.243 762.873, 202.237 761.219 C 204.088 759.682, 206.727 760.563, 207.491 762.972 C 207.803 763.955, 207.409 766.725, 206.615 769.129 C 205.822 771.533, 204.454 777.060, 203.575 781.411 C 202.697 785.762, 201.493 789.906, 200.900 790.620 C 199.832 791.907, 200.436 796.846, 202.044 799.967 C 202.478 800.810, 203.375 802.962, 204.038 804.750 C 204.701 806.538, 205.827 808, 206.542 808 C 207.952 808, 208.323 806.585, 210.078 794.500 C 211.618 783.896, 211.575 784, 214.346 784 C 219.989 784, 220.164 788.637, 215.349 810.565 L 212.699 822.631 215.445 827.315 C 216.955 829.892, 218.763 832, 219.464 832 C 220.291 832, 221.341 828.580, 222.457 822.250 C 224.446 810.975, 225.397 808.169, 227.504 807.360 C 230.006 806.400, 232 808.954, 232 813.119 C 232 815.249, 230.877 822.282, 229.505 828.746 C 228.133 835.211, 227.008 841.376, 227.005 842.446 C 226.999 844.819, 231.825 852, 233.426 852 C 234.109 852, 235.128 848.423, 235.920 843.250 C 237.591 832.341, 237.727 832, 240.407 832 C 245.595 832, 245.907 834.382, 242.851 850.617 L 240.701 862.034 244.713 866.767 C 246.919 869.370, 249.574 871.500, 250.612 871.500 C 252.266 871.500, 252.594 870.387, 253.259 862.500 C 254.135 852.116, 255.196 849, 257.856 849 C 261.710 849, 262.307 851.276, 261.112 861.408 C 260.501 866.596, 260 873.706, 260 877.208 C 260 883.487, 260.066 883.640, 264.784 888.288 C 271.810 895.208, 272.693 894.796, 273.442 884.250 C 273.784 879.438, 274.387 873.025, 274.782 870 C 275.482 864.638, 275.585 864.492, 278.909 864.175 L 282.317 863.850 281.675 877.175 C 281.321 884.504, 280.542 893.141, 279.943 896.369 C 278.883 902.086, 278.926 902.314, 281.614 905.119 C 283.132 906.704, 285.362 908, 286.569 908 C 288.694 908, 288.776 907.591, 289.164 895.157 C 289.476 885.126, 289.945 881.733, 291.305 879.657 C 293.407 876.449, 295.379 876.275, 297.372 879.121 C 298.448 880.657, 298.602 881.918, 297.929 883.686 C 297.418 885.030, 297 890.301, 297 895.398 C 297 900.496, 296.483 907.239, 295.852 910.383 L 294.704 916.099 298.048 919.550 C 304.047 925.739, 304.611 924.906, 305.299 908.833 C 305.766 897.905, 306.263 894.309, 307.471 893.100 C 308.668 891.903, 309.445 891.791, 310.769 892.625 C 312.295 893.587, 312.532 895.971, 312.771 912.775 L 313.043 931.833 322.183 938.417 C 332.711 945.999, 334.561 946.540, 333.593 941.750 C 331.751 932.632, 330.053 921.662, 329.450 914.975 C 328.839 908.202, 328.971 907.324, 330.851 905.629 C 333.350 903.374, 335.789 904.074, 336.354 907.207 C 339.002 921.893, 341.484 938.814, 341.787 944.242 C 342.111 950.041, 342.520 951.264, 344.717 952.992 C 349.648 956.871, 350.272 955.961, 349.340 946.250 C 348.878 941.438, 348.500 933.501, 348.500 928.613 C 348.500 921.237, 348.798 919.537, 350.250 918.618 C 353.414 916.615, 355.466 919.026, 355.769 925.103 C 356.383 937.412, 359.150 960.476, 360.159 961.692 C 360.756 962.411, 361.804 963, 362.488 963 C 363.171 963, 364.874 963.900, 366.273 965 C 367.671 966.100, 369.572 967, 370.496 967 C 371.928 967, 372.061 966.374, 371.394 962.750 C 370.276 956.676, 370.736 935.362, 372.038 932.930 C 372.809 931.489, 373.931 930.972, 375.817 931.190 L 378.500 931.500 378.553 943.500 C 378.583 950.100, 379.186 958.875, 379.894 963 C 380.601 967.125, 381.252 971.106, 381.340 971.846 C 381.480 973.024, 385.031 974.744, 391.406 976.723 C 393.548 977.388, 393.530 977.120, 390.507 963.103 C 387.528 949.287, 389.582 939.362, 394.750 942.610 C 396.091 943.453, 396.652 945.675, 397.149 952.105 C 397.506 956.722, 398.570 963.156, 399.514 966.402 C 400.628 970.231, 401.018 973.850, 400.627 976.708 C 400.039 980.992, 400.117 981.151, 403.479 982.556 C 405.380 983.350, 407.350 984, 407.855 984 C 408.361 984, 408.865 979.837, 408.975 974.750 C 409.085 969.663, 409.473 963.523, 409.837 961.106 C 410.598 956.061, 412.983 953.855, 415.750 955.637 C 417.142 956.534, 417.450 957.963, 417.258 962.632 C 417.124 965.859, 417.274 973.016, 417.589 978.536 L 418.163 988.572 425.332 990.927 C 437.593 994.955, 449.346 997.938, 453.079 997.970 L 456.658 998 458.536 988.451 C 460.502 978.452, 461.987 975.871, 464.767 977.625 C 468.149 979.758, 468.387 981.518, 466.565 990.943 C 465.589 995.993, 464.997 1000.330, 465.249 1000.582 C 465.501 1000.834, 469.440 1001.328, 474.003 1001.680 L 482.299 1002.320 481.759 995.588 C 481.246 989.190, 481.339 988.803, 483.646 987.751 C 487.419 986.032, 489.220 988.603, 489.916 996.702 L 490.500 1003.500 499.070 1003.786 L 507.641 1004.073 508.882 997.286 C 510.291 989.584, 512.202 986, 514.901 986 C 517.793 986, 519.311 988.563, 518.597 992.241 C 518.249 994.033, 517.684 997.700, 517.341 1000.390 L 516.719 1005.280 526.109 1004.549 C 531.274 1004.147, 536.041 1003.371, 536.703 1002.826 C 537.364 1002.280, 538.039 999.330, 538.203 996.270 C 538.536 990.029, 540.556 987.604, 543.750 989.609 C 545.048 990.424, 545.577 992.315, 545.800 996.928 L 546.099 1003.149 552.449 1002.469 C 555.941 1002.095, 560.307 1001.474, 562.149 1001.090 L 565.500 1000.391 565.162 992.391 C 564.891 985.954, 565.141 984.128, 566.442 983.048 C 567.695 982.008, 568.616 981.960, 570.530 982.832 C 572.818 983.874, 573 984.478, 573 991.033 L 573 998.110 577.750 997.805 L 582.500 997.500 583.500 987.598 C 584.386 978.821, 584.753 977.582, 586.726 976.705 C 588.336 975.990, 589.399 976.086, 590.563 977.052 C 591.910 978.170, 592.061 979.667, 591.483 986.195 L 590.792 994 593.462 994 C 598.995 994, 599.704 992.830, 601.050 981.470 C 602.065 972.905, 602.682 970.635, 604.306 969.498 C 605.798 968.453, 606.815 968.366, 608.289 969.155 C 610.042 970.093, 610.201 970.918, 609.678 976.357 C 609.353 979.736, 608.786 983.962, 608.418 985.750 C 607.787 988.820, 607.909 988.999, 610.625 988.985 C 615.140 988.961, 616.784 987.519, 615.202 984.968 C 614.489 983.817, 614.191 981.974, 614.540 980.873 C 614.890 979.771, 615.474 975.009, 615.838 970.290 C 616.347 963.692, 616.904 961.456, 618.250 960.610 C 621.562 958.528, 623.466 961.015, 623.798 967.854 C 624.052 973.098, 624.371 974, 625.976 974 C 628.108 974, 640.047 961.431, 643.620 955.425 C 647.847 948.322, 650.703 942.543, 651.382 939.725 C 651.750 938.198, 652.976 936.024, 654.107 934.893 C 656.065 932.935, 656.254 932.920, 658.081 934.574 C 660.501 936.763, 660.555 941.556, 658.205 945.500 C 657.222 947.150, 655.899 950.300, 655.265 952.500 C 653.676 958.014, 651 969.663, 651 971.064 C 651 972.467, 655.787 971.448, 658 969.574 C 658.825 968.876, 660.219 968.051, 661.098 967.742 C 662.343 967.303, 662.830 965.122, 663.304 957.840 C 664.127 945.212, 665.408 941, 668.425 941 C 673.187 941, 673.637 943.431, 671.338 956.750 C 670.688 960.518, 672.151 960.993, 675.786 958.196 C 677.924 956.551, 678.080 955.677, 678.188 944.715 C 678.318 931.660, 679.086 929.807, 683.530 931.832 C 685.838 932.883, 686 933.450, 686 940.479 C 686 949.506, 686.774 949.844, 692.976 943.525 L 697.368 939.049 697.105 923.602 C 696.853 908.760, 696.926 908.110, 698.959 907.022 C 700.123 906.399, 701.959 906.169, 703.038 906.512 C 704.830 907.081, 705 908.083, 705 918.067 C 705 926.156, 705.325 928.995, 706.250 928.982 C 707.770 928.960, 713.465 922.260, 714.360 919.440 C 714.715 918.321, 715.082 909.204, 715.175 899.179 L 715.344 880.952 717.745 880.349 C 721.732 879.349, 722.476 881.278, 722.836 893.547 C 723.222 906.715, 724.061 907.678, 728.952 900.570 C 732.184 895.872, 732.637 894.037, 730.973 892.373 C 730.407 891.807, 729.675 886.205, 729.344 879.923 C 728.793 869.459, 728.905 868.355, 730.678 866.770 C 732.434 865.200, 732.815 865.182, 734.806 866.577 C 736.730 867.925, 737 869.028, 737 875.557 C 737 882.015, 737.235 883, 738.773 883 C 739.791 883, 741.387 881.432, 742.523 879.316 C 744.240 876.117, 744.500 873.667, 744.500 860.688 C 744.500 847.546, 744.711 845.608, 746.250 844.626 C 749.649 842.458, 751.468 844.993, 751.796 852.354 C 752.022 857.434, 752.442 859, 753.577 859 C 754.394 859, 755.356 858.212, 755.714 857.250 C 756.072 856.288, 757.208 854.343, 758.238 852.929 C 760.047 850.446, 760.055 849.845, 758.479 835.459 C 757.581 827.264, 756.674 820.282, 756.465 819.943 C 755.850 818.948, 758.994 815, 760.402 815 C 763.314 815, 764.814 818.589, 765.522 827.250 C 766.352 837.408, 767.658 838.404, 771.025 831.448 C 772.623 828.147, 773.041 826.016, 772.545 823.698 C 772.169 821.939, 771.223 814.200, 770.443 806.500 C 769.663 798.800, 768.755 790.900, 768.425 788.944 C 767.772 785.065, 769.743 782.304, 772.429 783.334 C 775.773 784.618, 777.181 788.885, 777.911 799.951 C 778.311 806.013, 778.926 811.259, 779.276 811.610 C 780.481 812.814, 783.031 811.048, 784.092 808.276 C 784.833 806.340, 784.839 804.441, 784.114 802 C 783.177 798.846, 779 767.443, 779 763.553 C 779 762.675, 780.174 761.422, 781.610 760.768 C 783.818 759.762, 784.416 759.849, 785.501 761.332 C 786.759 763.053, 788.265 771.897, 789.572 785.250 C 790.606 795.809, 791.841 794.556, 799.918 774.750 C 803.646 765.606, 803.755 762.686, 800.509 758.828 C 797.226 754.927, 795.087 747.222, 794.763 738.136 C 794.545 732.035, 794.800 730.578, 796.250 729.641 C 798.738 728.033, 801.439 729.979, 801.746 733.601 C 802.329 740.484, 804.189 747, 805.572 747 C 806.448 747, 807.024 745.937, 807.063 744.250 C 807.098 742.737, 807.498 737.675, 807.953 733 C 808.698 725.350, 808.536 723.766, 806.335 717.160 C 804.990 713.123, 804.027 708.175, 804.195 706.164 C 804.461 702.974, 804.882 702.444, 807.500 702 C 810.266 701.530, 810.519 701.140, 810.740 696.995 C 810.872 694.523, 811.658 681.475, 812.487 668 C 814.424 636.531, 816.787 596.388, 818.050 573.500 C 819.844 540.963, 823.947 474.626, 824.559 468.250 C 825.291 460.622, 824.574 460.401, 817.163 465.970 C 810.235 471.176, 806.884 471.988, 792.309 471.994 C 785.604 471.997, 779.910 472.337, 779.657 472.750 C 779.403 473.162, 779.618 477.550, 780.134 482.500 C 781.193 492.648, 779.846 515.089, 777.493 526.500 C 774.632 540.372, 767.913 549.646, 754 558.931 C 749.046 562.237, 737.691 568.109, 732.500 570.049 C 731.400 570.460, 728.925 571.472, 727 572.297 C 719.098 575.686, 703.206 580.139, 690.263 582.591 C 673.502 585.766, 644.181 586.912, 625.774 585.113 C 604.313 583.014, 582.701 577.531, 572.631 571.629 C 565.495 567.448, 555.885 556.361, 551.202 546.908 C 548.891 542.243, 547 537.745, 547 536.913 C 547 536.081, 546.598 534.972, 546.106 534.450 C 543.625 531.812, 539.724 508.331, 538.738 490.093 C 538.507 485.822, 538.316 485.583, 532.500 482.330 C 521.622 476.245, 514.202 474.502, 499.500 474.578 C 485.496 474.651, 478.186 476.063, 467.750 480.712 L 462 483.273 461.987 493.887 C 461.968 509.062, 459.385 520.400, 452.921 533.687 C 448.171 543.450, 446.681 545.477, 437.580 554.558 C 420.253 571.848, 404.080 580.700, 381 585.527 C 361.594 589.586, 328.617 591.122, 306.856 588.981 C 284.964 586.828, 259.528 580.355, 245.981 573.491 C 239.502 570.207, 231.044 561.813, 228.198 555.843 C 223.629 546.253, 220.415 518.969, 221.595 499.774 L 222.254 489.047 219.562 488.024 C 218.081 487.461, 211.780 487, 205.560 487 C 187.869 487, 189.574 487.869, 171.946 469.876 C 163.392 461.144, 155.854 454, 155.196 454 C 154.538 454, 154 454.894, 154 455.987 M 876.373 459.463 C 868.728 464.475, 847.433 490.273, 842.912 500 C 838.716 509.027, 836.490 515.592, 834.843 523.804 C 833.355 531.218, 834.236 533.500, 838.585 533.500 C 840.793 533.500, 841.610 532.926, 842.138 531 C 842.516 529.625, 843.788 524.900, 844.965 520.500 C 848.618 506.850, 854.701 495.981, 866.794 481.500 C 875.781 470.737, 878.554 468.077, 882.907 466.041 C 887.706 463.796, 888.388 463.709, 890.738 465.041 C 895.691 467.848, 900.984 488.521, 899.540 499.413 C 899.176 502.156, 896.903 512.298, 894.489 521.950 C 888.998 543.903, 886.796 555.759, 887.192 561.237 C 887.491 565.369, 887.606 565.500, 890.943 565.500 L 894.386 565.500 896.564 553 C 897.761 546.125, 900.825 532.472, 903.371 522.659 C 908.574 502.607, 909.225 493.633, 906.513 479.338 C 904.708 469.824, 901.883 464.030, 896.815 459.452 C 893.370 456.339, 892.429 456.005, 887.247 456.051 C 882.456 456.093, 880.647 456.661, 876.373 459.463 M 338.500 458.624 C 317.278 460.713, 305.819 465.235, 290.500 477.567 C 278.708 487.059, 273.602 489.642, 262.609 491.678 C 252.402 493.568, 251 494.271, 251 497.500 C 251 501.732, 252.909 502.179, 263.628 500.456 C 277.695 498.194, 278.777 497.623, 299 481.775 C 302.025 479.405, 307.650 476.028, 311.500 474.271 C 318.878 470.905, 328.566 468.233, 329.610 469.277 C 329.951 469.617, 329.225 471.969, 327.999 474.502 C 325.144 480.401, 324.800 490.036, 327.272 494.904 C 328.222 496.776, 329 498.730, 329 499.247 C 329 499.803, 323.643 500.047, 315.877 499.844 C 304.244 499.539, 302.627 499.699, 301.632 501.250 C 300.157 503.551, 301.772 506.161, 305.244 507.090 C 309.222 508.154, 369.404 509.104, 378.895 508.253 C 385.246 507.683, 387.559 507.074, 388.390 505.750 C 390.279 502.744, 387.958 500.543, 382.529 500.190 L 377.763 499.881 378.622 495.690 C 379.094 493.386, 379.438 488.462, 379.386 484.750 C 379.280 477.108, 379.842 476.691, 385.056 480.548 C 386.950 481.949, 392.100 484.911, 396.500 487.129 C 408.707 493.284, 411.037 494.661, 413.935 497.438 C 418.403 501.718, 423.957 499.947, 422.631 494.665 C 421.951 491.955, 413.015 485.487, 403.700 480.964 C 394.795 476.639, 390.208 473.888, 383.985 469.141 C 380.968 466.840, 377.375 464.679, 376 464.341 C 374.625 464.002, 373.019 463.349, 372.431 462.890 C 369.198 460.366, 347.944 457.694, 338.500 458.624 M 79.500 463.081 C 71.831 468.881, 67.066 483.320, 71.584 487.070 C 74.456 489.453, 76.489 487.284, 79.574 478.543 C 81.797 472.244, 84.989 469, 88.961 469 C 94.679 469, 112.916 489.239, 128.462 512.838 C 137.915 527.186, 142.972 548.082, 141.571 567 C 140.681 579.008, 138.227 590.467, 135.411 595.764 C 132.493 601.251, 132.132 610.368, 134.624 615.620 C 135.517 617.502, 139.379 621.941, 143.206 625.484 C 151.934 633.565, 155.759 638.814, 157.689 645.361 C 159.597 651.831, 160.704 653.177, 163.814 652.801 C 168.044 652.289, 168.521 650.075, 166.113 642.145 C 164.077 635.443, 163.226 634.228, 153.109 623.570 C 140.428 610.212, 139.827 608.728, 143.529 599.930 C 148.440 588.262, 149.378 582.006, 149.441 560.500 C 149.495 542.371, 149.279 539.727, 147.138 532.240 C 145.838 527.696, 144.376 523.732, 143.888 523.431 C 143.399 523.129, 143 522.069, 143 521.076 C 143 520.082, 142.164 518.197, 141.143 516.885 C 140.121 515.573, 138.205 512.475, 136.884 510 C 132.282 501.377, 114.071 478.136, 105.856 470.401 C 94.027 459.265, 87.092 457.339, 79.500 463.081 M 634 468.920 C 625.564 470.109, 615.065 472.939, 609.220 475.598 C 606.317 476.919, 603.617 478.009, 603.220 478.020 C 602.562 478.037, 592.620 483.120, 582.212 488.760 C 579.918 490.003, 574.450 492.154, 570.061 493.540 C 559.254 496.954, 556.751 499.655, 560.907 503.416 C 562.676 505.017, 563.151 505.028, 567.442 503.571 C 569.987 502.707, 572.572 502, 573.186 502 C 574.183 502, 585.560 496.504, 599.500 489.288 C 606.303 485.767, 610.006 484.184, 613.166 483.447 L 615.831 482.826 615.666 490.721 C 615.537 496.875, 615.932 499.423, 617.456 502.269 C 618.532 504.278, 619.207 506.111, 618.956 506.342 C 618.705 506.574, 613.428 506.319, 607.229 505.777 C 595.312 504.733, 593 505.257, 593 509 C 593 512.394, 595.941 513.289, 611.783 514.714 C 630.955 516.438, 687.249 516.778, 691.164 515.193 C 694.654 513.781, 695.878 510.115, 693.453 508.342 C 692.077 507.336, 688.564 507.180, 678.330 507.671 C 665.856 508.269, 665 508.193, 665 506.484 C 665 505.479, 665.788 503.785, 666.750 502.718 C 668.157 501.159, 668.497 498.940, 668.486 491.389 C 668.477 484.620, 668.816 482, 669.702 482 C 671.036 482, 676.430 484.218, 682 487.056 C 683.925 488.037, 690.675 490.954, 697 493.538 C 703.325 496.121, 710.170 499.082, 712.210 500.118 C 717.085 502.591, 719.537 502.494, 721.479 499.750 C 723.001 497.601, 722.915 497.355, 719.551 494.250 C 717.614 492.462, 715.149 491, 714.074 491 C 712.998 491, 711.840 490.550, 711.500 490 C 711.160 489.450, 710.206 489, 709.379 489 C 707.734 489, 699.214 485.364, 691.749 481.475 C 689.137 480.114, 686.530 479, 685.958 479 C 685.385 479, 682.065 477.667, 678.579 476.037 C 665.424 469.886, 647.470 467.020, 634 468.920 M 358.200 475.200 C 357.540 475.860, 357 477.570, 357 479 C 357 480.430, 357.540 482.140, 358.200 482.800 C 358.860 483.460, 360.570 484, 362 484 C 366.313 484, 368.221 480.345, 366.393 475.582 C 365.667 473.689, 359.976 473.424, 358.200 475.200 M 647.035 482.934 C 644.576 487.529, 646.961 492, 651.871 492 C 655.205 492, 657 490.355, 657 487.300 C 657 482.164, 649.262 478.773, 647.035 482.934 M 396.284 527.116 C 394.668 528.732, 376.648 538.042, 364.885 543.338 C 360.423 545.347, 345.503 548.983, 341.684 548.993 C 337.605 549.003, 335 550.726, 335 553.413 C 335 557.607, 336.825 558.093, 346.635 556.506 C 359.644 554.402, 367.727 551.656, 383.512 543.978 C 399.442 536.230, 403 533.792, 403 530.627 C 403 526.668, 398.884 524.516, 396.284 527.116 M 576.200 529.200 C 574.008 531.392, 574.954 533.954, 579.049 536.921 C 587.566 543.090, 621.543 555.458, 628.213 554.816 C 630.956 554.552, 631.552 554.047, 631.815 551.765 C 632.161 548.763, 630.015 547.415, 621 544.973 C 607.383 541.285, 601.937 539.170, 587.500 531.962 C 578.784 527.610, 577.985 527.415, 576.200 529.200 M 88.011 563.487 C 87.332 564.305, 87.030 565.992, 87.339 567.237 C 87.648 568.482, 88.626 574.450, 89.511 580.500 C 91.343 593.007, 96.391 609.146, 101.534 618.932 C 103.456 622.591, 109.445 630.740, 114.842 637.042 C 125.910 649.966, 132 658.430, 132 660.890 C 132 663.424, 134.888 667, 136.934 667 C 140.513 667, 141.429 664.459, 140 658.499 C 138.505 652.266, 135.249 647.377, 124.087 634.595 C 114.680 623.824, 112.684 620.925, 107.839 611 C 102.669 600.410, 100.377 592.720, 97.895 577.641 C 96.705 570.414, 95.287 563.938, 94.743 563.250 C 93.391 561.539, 89.514 561.676, 88.011 563.487 M 836.667 569.667 C 835.189 571.144, 836.212 574.414, 840.452 581.773 C 848.004 594.879, 848.472 602.215, 842.506 613.988 C 839.768 619.391, 839.339 622.939, 841.200 624.800 C 843.326 626.926, 845.666 626.089, 848.326 622.250 C 855.506 611.887, 856.967 594.958, 851.626 584 C 847.396 575.320, 842.353 569, 839.657 569 C 838.379 569, 837.033 569.300, 836.667 569.667 M 416.363 590.205 C 412.990 593.943, 406.624 603.237, 404.858 607.001 C 400.206 616.915, 399.676 618.860, 399.213 627.718 C 398.591 639.611, 400.126 643.937, 407.414 650.830 C 411.385 654.586, 414.219 656.298, 418.542 657.555 C 425.345 659.533, 436.566 659.175, 442 656.806 C 449.676 653.461, 451.240 653, 454.908 653 C 459.036 653, 461.786 654.590, 473.479 663.738 C 484.182 672.112, 489.076 674.263, 498.625 674.790 C 503.493 675.058, 508.204 674.758, 510.377 674.040 C 512.452 673.356, 517.908 669.246, 523.124 664.439 C 533.316 655.046, 539.731 650.994, 544.376 651.013 C 546.094 651.020, 550.353 651.920, 553.839 653.013 C 566.187 656.884, 577.005 654.881, 585.211 647.206 C 591.038 641.756, 592.809 638.674, 593.653 632.517 C 594.856 623.735, 595.455 624.384, 620.250 661.337 C 627.263 671.789, 633 680.635, 633 680.996 C 633 682.648, 637.899 686, 640.314 686 C 645.278 686, 643.853 681.624, 634 666.610 C 629.050 659.067, 624.996 652.582, 624.990 652.198 C 624.985 651.814, 623.522 649.622, 621.740 647.326 C 619.958 645.031, 616.250 639.961, 613.500 636.060 C 607.613 627.710, 600.483 618.400, 594.838 611.694 C 591.606 607.854, 590.259 606.949, 588.146 607.194 L 585.500 607.500 585.500 620 C 585.500 631.860, 585.363 632.711, 582.825 636.611 C 578.890 642.658, 571.907 646.451, 564.960 646.312 C 561.912 646.252, 557.695 645.482, 555.587 644.601 C 550.870 642.630, 539.161 642.488, 534.709 644.348 C 532.934 645.090, 526.790 650.042, 521.055 655.353 C 510.605 665.031, 507.157 666.982, 500.486 666.994 C 495.201 667.004, 487.005 663.266, 478.633 657.025 C 464.141 646.224, 459.833 643.985, 453.601 644.015 C 450.472 644.030, 445.184 645.627, 441.500 647.668 C 438.309 649.436, 428.083 651.235, 425.168 650.540 C 423.701 650.191, 420.125 648.721, 417.222 647.274 C 409.746 643.550, 407.557 639.651, 407.525 630.007 C 407.502 623.076, 407.866 621.723, 412.100 612.989 C 414.630 607.770, 418.369 601.324, 420.408 598.665 C 424.849 592.875, 425.073 588.683, 420.967 588.205 C 419.325 588.013, 417.706 588.717, 416.363 590.205 M 522.500 724.781 C 515.146 727.216, 513.142 727.433, 497.681 727.465 C 482.342 727.497, 480.770 727.664, 479.819 729.361 C 479 730.823, 479.234 731.679, 480.916 733.361 C 482.931 735.376, 484.025 735.500, 499.777 735.500 C 514.404 735.500, 517.503 735.205, 524.500 733.147 C 533.059 730.629, 536 728.771, 536 725.880 C 536 724.201, 533.192 721.914, 531.316 722.066 C 530.867 722.102, 526.900 723.324, 522.500 724.781 M 619.200 741.200 C 618.540 741.860, 618 744.530, 618 747.133 C 618 752.533, 618.675 752.123, 606 754.415 C 580.174 759.085, 548.475 761.881, 485 765.089 C 461.885 766.257, 397.073 765.794, 386.750 764.387 C 381.027 763.607, 380.557 761.757, 385 757.500 C 389.288 753.392, 388.655 748, 383.885 748 C 381.913 748, 372.646 758.350, 368.663 765 C 364.472 771.997, 363.705 773.254, 361.337 777 C 358.905 780.847, 356.037 788.515, 356.015 791.231 C 355.999 793.109, 360.128 794.657, 362.026 793.484 C 362.653 793.097, 364.048 790.917, 365.126 788.640 C 367.953 782.671, 372.436 775.135, 374.226 773.346 C 375.566 772.005, 377.324 771.942, 387.634 772.863 C 439.458 777.493, 556.151 772.123, 606 762.815 C 623.727 759.505, 622.579 759.239, 630.054 768.392 C 637.635 777.673, 639.281 778.940, 641.750 777.394 C 645.380 775.121, 644.348 771.848, 637.527 764 C 631.085 756.589, 626 747.769, 626 744.008 C 626 742.942, 625.130 741.605, 624.066 741.035 C 621.571 739.700, 620.669 739.731, 619.200 741.200 M 544.236 798.466 C 531.228 802.528, 489.513 804.025, 471.250 801.084 C 462.436 799.665, 460 800.289, 460 803.967 C 460 807.495, 463.204 808.756, 475.053 809.892 C 499.710 812.257, 535.600 810.569, 547.294 806.495 C 549.607 805.689, 552.297 805.023, 553.271 805.015 C 554.246 805.007, 555.549 803.888, 556.168 802.530 C 558.499 797.415, 553.285 795.639, 544.236 798.466 M 725.200 806.200 C 724.528 806.872, 724 810.093, 724 813.518 C 724 820.424, 722.057 827.968, 718.244 835.864 C 715.536 841.472, 715.739 843.201, 719.368 845.433 C 720.788 846.307, 721.632 845.866, 724.024 843 C 725.631 841.075, 726.958 838.803, 726.973 837.950 C 726.988 837.098, 727.427 835.973, 727.948 835.450 C 729.797 833.598, 732 822.474, 732 814.990 C 732 807.284, 731.085 805, 728 805 C 727.120 805, 725.860 805.540, 725.200 806.200 M 505.500 856.063 C 490.338 857.561, 483 860.117, 483 863.901 C 483 868.052, 485.322 868.401, 497.114 866.021 C 510.030 863.415, 522.539 863.039, 532.713 864.951 C 540.486 866.412, 543 865.689, 543 861.993 C 543 856.516, 526.816 853.957, 505.500 856.063 M 434.086 967.396 C 433.329 968.308, 433.027 972.344, 433.214 979.040 C 433.450 987.513, 433.803 989.478, 435.250 990.389 C 436.524 991.190, 437.476 991.190, 438.750 990.389 C 440.183 989.487, 440.552 987.541, 440.786 979.646 C 440.950 974.117, 440.615 969.150, 440.001 968.002 C 438.760 965.683, 435.763 965.376, 434.086 967.396 M 638.200 975.200 C 636.611 976.789, 636.669 979, 638.300 979 C 639.015 979, 640.140 978.460, 640.800 977.800 C 641.460 977.140, 642 976.015, 642 975.300 C 642 973.669, 639.789 973.611, 638.200 975.200" stroke="none" fill="#000000" fill-rule="evenodd"/></svg>
